999
dxflib 3.7.5.0
  0
SECTION
  2
HEADER
  9
$ACADVER
  1
AC1009
  9
$INSUNITS
 70
4
  9
$DIMEXE
 40
1.25
  9
$DIMLFAC
 40
1.0
  9
$DIMDEC
 70
0
  9
$DIMCLRD
 70
255
  9
$DIMCLRE
 70
255
  9
$DIMCLRT
 70
255
  9
$TEXTSTYLE
  7
Standard
  9
$LIMMIN
 10
0.0
 20
0.0
  0
ENDSEC
  0
SECTION
  2
TABLES
  0
TABLE
  2
VPORT
 70
1
  0
VPORT
  2
*Active
 70
0
 10
0.0
 20
0.0
 11
1.0
 21
1.0
 12
286.3055555555554861
 22
148.5
 13
0.0
 23
0.0
 14
10.0
 24
10.0
 15
10.0
 25
10.0
 16
0.0
 26
0.0
 36
1.0
 17
0.0
 27
0.0
 37
0.0
 40
297.0
 41
1.92798353909465
 42
50.0
 43
0.0
 44
0.0
 50
0.0
 51
0.0
 71
0
 72
1000
 73
1
 74
3
 75
1
 76
1
 77
0
 78
0
  0
ENDTAB
  0
TABLE
  2
LTYPE
 70
0
  0
ENDTAB
  0
TABLE
  2
LAYER
 70
1
  0
LAYER
  2
0
 70
0
 62
250
  6
CONTINUOUS
  0
ENDTAB
  0
TABLE
  2
STYLE
 70
1
  0
STYLE
  2
standard
 70
0
 40
120.0
 41
1.0
 50
0.0
 71
0
 42
2.5
  3
simplex.shx
  4

  0
ENDTAB
  0
TABLE
  2
VIEW
 70
0
  0
ENDTAB
  0
TABLE
  2
UCS
 70
0
  0
ENDTAB
  0
TABLE
  2
APPID
 70
1
  0
APPID
  2
ACAD
 70
0
  0
ENDTAB
  0
TABLE
  2
BLOCK_RECORD
 70
1
  0
BLOCK_RECORD
  2
*Model_Space
340
22
  0
BLOCK_RECORD
  2
*Paper_Space
340
1E
  0
BLOCK_RECORD
  2
*Paper_Space0
340
26
  0
ENDTAB
  0
ENDSEC
  0
SECTION
  2
BLOCKS
  0
BLOCK
  2
*Model_Space
 70
0
 10
0.0
 20
0.0
 30
0.0
  3
*Model_Space
  1

  0
ENDBLK
  0
BLOCK
  2
*Paper_Space
 70
0
 10
0.0
 20
0.0
 30
0.0
  3
*Paper_Space
  1

  0
ENDBLK
  0
BLOCK
  2
*Paper_Space0
 70
0
 10
0.0
 20
0.0
 30
0.0
  3
*Paper_Space0
  1

  0
ENDBLK
  0
ENDSEC
  0
SECTION
  2
ENTITIES
  0
POLYLINE
  8
0
 62
0
  6
BYLAYER
 66
1
 70
1
 10
0.0
 20
0.0
 30
0.0
  0
VERTEX
  8
0
 10
-6552.1939799515530467
 20
5246.9577183161163703
 30
0.0
  0
VERTEX
  8
0
 10
-6492.1941270845127292
 20
5186.9578654490760528
 30
0.0
  0
VERTEX
  8
0
 10
-6432.1942742174724117
 20
5126.9580125820357352
 30
0.0
  0
VERTEX
  8
0
 10
-6432.1942742174724117
 20
1145.0206863883067854
 30
0.0
  0
VERTEX
  8
0
 10
-6492.1941270845127292
 20
1085.0206100037394208
 30
0.0
  0
VERTEX
  8
0
 10
-6552.1939799515530467
 20
1085.0206100037394208
 30
0.0
  0
SEQEND
  0
POLYLINE
  8
0
 62
0
  6
BYLAYER
 66
1
 70
1
 10
0.0
 20
0.0
 30
0.0
  0
VERTEX
  8
0
 10
-6432.1942742174724117
 20
5126.9580125820357352
 30
0.0
  0
VERTEX
  8
0
 10
-6492.1941270845127292
 20
5186.9578654490760528
 30
0.0
  0
VERTEX
  8
0
 10
-6552.1939799515530467
 20
5246.9577183161163703
 30
0.0
  0
VERTEX
  8
0
 10
-2725.1003577715891879
 20
5246.9577183161163703
 30
0.0
  0
VERTEX
  8
0
 10
-2725.1003577715891879
 20
5186.9578654490760528
 30
0.0
  0
VERTEX
  8
0
 10
-2785.1005086619989015
 20
5126.9580125820357352
 30
0.0
  0
SEQEND
  0
POLYLINE
  8
0
 62
0
  6
BYLAYER
 66
1
 70
1
 10
0.0
 20
0.0
 30
0.0
  0
VERTEX
  8
0
 10
1058.1064920427888865
 20
5126.9580125820357352
 30
0.0
  0
VERTEX
  8
0
 10
1118.106568427356251
 20
5186.9578654490760528
 30
0.0
  0
VERTEX
  8
0
 10
1178.1066448119236156
 20
5246.9577183161163703
 30
0.0
  0
VERTEX
  8
0
 10
1178.1066448119236156
 20
503.0473542786785401
 30
0.0
  0
VERTEX
  8
0
 10
1118.106568427356251
 20
563.0474306632459047
 30
0.0
  0
VERTEX
  8
0
 10
1058.1064920427888865
 20
623.0475070478132693
 30
0.0
  0
SEQEND
  0
POLYLINE
  8
0
 62
0
  6
BYLAYER
 66
1
 70
1
 10
0.0
 20
0.0
 30
0.0
  0
VERTEX
  8
0
 10
1058.1064920427888865
 20
623.0475070478132693
 30
0.0
  0
VERTEX
  8
0
 10
1118.106568427356251
 20
563.0474306632459047
 30
0.0
  0
VERTEX
  8
0
 10
1178.1066448119236156
 20
503.0473542786785401
 30
0.0
  0
VERTEX
  8
0
 10
-68.4766246950766799
 20
503.0473542786785401
 30
0.0
  0
VERTEX
  8
0
 10
-128.4766824531834573
 20
563.0474306632459047
 30
0.0
  0
VERTEX
  8
0
 10
-188.4767402112902346
 20
623.0475070478132693
 30
0.0
  0
SEQEND
  0
POLYLINE
  8
0
 62
0
  6
BYLAYER
 66
1
 70
1
 10
0.0
 20
0.0
 30
0.0
  0
VERTEX
  8
0
 10
-188.4767402112902346
 20
623.0475070478132693
 30
0.0
  0
VERTEX
  8
0
 10
-128.4766824531834573
 20
563.0474306632459047
 30
0.0
  0
VERTEX
  8
0
 10
-68.4766246950766799
 20
503.0473542786785401
 30
0.0
  0
VERTEX
  8
0
 10
-68.4766246950766799
 20
-3074.2216219908732455
 30
0.0
  0
VERTEX
  8
0
 10
-128.4766824531834573
 20
-3014.2214711004635319
 30
0.0
  0
VERTEX
  8
0
 10
-188.4767402112902346
 20
-2954.2213202100538183
 30
0.0
  0
SEQEND
  0
POLYLINE
  8
0
 62
0
  6
BYLAYER
 66
1
 70
1
 10
0.0
 20
0.0
 30
0.0
  0
VERTEX
  8
0
 10
-188.4767402112902346
 20
-2954.2213202100538183
 30
0.0
  0
VERTEX
  8
0
 10
-128.4766824531834573
 20
-3014.2214711004635319
 30
0.0
  0
VERTEX
  8
0
 10
-68.4766246950766799
 20
-3074.2216219908732455
 30
0.0
  0
VERTEX
  8
0
 10
-6552.1939799515530467
 20
-3074.2216219908732455
 30
0.0
  0
VERTEX
  8
0
 10
-6492.1941270845127292
 20
-3014.2214711004635319
 30
0.0
  0
VERTEX
  8
0
 10
-6432.1942742174724117
 20
-2954.2213202100538183
 30
0.0
  0
SEQEND
  0
POLYLINE
  8
0
 62
0
  6
BYLAYER
 66
1
 70
1
 10
0.0
 20
0.0
 30
0.0
  0
VERTEX
  8
0
 10
-2665.1002068811794743
 20
5126.9580125820357352
 30
0.0
  0
VERTEX
  8
0
 10
-2725.1003577715891879
 20
5186.9578654490760528
 30
0.0
  0
VERTEX
  8
0
 10
-2725.1003577715891879
 20
5246.9577183161163703
 30
0.0
  0
VERTEX
  8
0
 10
1178.1066448119236156
 20
5246.9577183161163703
 30
0.0
  0
VERTEX
  8
0
 10
1118.106568427356251
 20
5186.9578654490760528
 30
0.0
  0
VERTEX
  8
0
 10
1058.1064920427888865
 20
5126.9580125820357352
 30
0.0
  0
SEQEND
  0
POLYLINE
  8
0
 62
0
  6
BYLAYER
 66
1
 70
1
 10
0.0
 20
0.0
 30
0.0
  0
VERTEX
  8
0
 10
-2785.1005086619989015
 20
5126.9580125820357352
 30
0.0
  0
VERTEX
  8
0
 10
-2725.1003577715891879
 20
5186.9578654490760528
 30
0.0
  0
VERTEX
  8
0
 10
-2665.1002068811794743
 20
5126.9580125820357352
 30
0.0
  0
VERTEX
  8
0
 10
-2665.1002068811794743
 20
1025.0205336191720562
 30
0.0
  0
VERTEX
  8
0
 10
-2725.1003577715891879
 20
1085.0206100037394208
 30
0.0
  0
VERTEX
  8
0
 10
-2785.1005086619989015
 20
1145.0206863883067854
 30
0.0
  0
SEQEND
  0
POLYLINE
  8
0
 62
0
  6
BYLAYER
 66
1
 70
1
 10
0.0
 20
0.0
 30
0.0
  0
VERTEX
  8
0
 10
-6552.1939799515530467
 20
1085.0206100037394208
 30
0.0
  0
VERTEX
  8
0
 10
-6492.1941270845127292
 20
1085.0206100037394208
 30
0.0
  0
VERTEX
  8
0
 10
-6432.1942742174724117
 20
1025.0205336191720562
 30
0.0
  0
VERTEX
  8
0
 10
-6432.1942742174724117
 20
-2954.2213202100538183
 30
0.0
  0
VERTEX
  8
0
 10
-6492.1941270845127292
 20
-3014.2214711004635319
 30
0.0
  0
VERTEX
  8
0
 10
-6552.1939799515530467
 20
-3074.2216219908732455
 30
0.0
  0
SEQEND
  0
POLYLINE
  8
0
 62
0
  6
BYLAYER
 66
1
 70
1
 10
0.0
 20
0.0
 30
0.0
  0
VERTEX
  8
0
 10
-2785.1005086619989015
 20
1145.0206863883067854
 30
0.0
  0
VERTEX
  8
0
 10
-2725.1003577715891879
 20
1085.0206100037394208
 30
0.0
  0
VERTEX
  8
0
 10
-2665.1002068811794743
 20
1025.0205336191720562
 30
0.0
  0
VERTEX
  8
0
 10
-6432.1942742174724117
 20
1025.0205336191720562
 30
0.0
  0
VERTEX
  8
0
 10
-6492.1941270845127292
 20
1085.0206100037394208
 30
0.0
  0
VERTEX
  8
0
 10
-6432.1942742174724117
 20
1145.0206863883067854
 30
0.0
  0
SEQEND
  0
3DFACE
  8
0
 62
0
  6
BYLAYER
 10
-3568.8508568085153456
 20
5126.9592093153332826
 30
0.0
 11
-5912.6031933037138515
 21
5126.9532963883484626
 31
0.0
 12
-5912.6034960455644978
 22
5246.9534119041800295
 32
0.0
 13
-3568.8511595503659919
 23
5246.9593248311648495
 33
0.0
  0
3DFACE
  8
0
 62
0
  6
BYLAYER
 10
-3568.8509324939777798
 20
5156.9592381942911743
 30
0.0
 11
-5131.3524901574437536
 21
5156.955296242967961
 31
0.0
 12
-5131.3525658429061878
 22
5186.9553251219258527
 32
0.0
 13
-3568.8510081794406688
 23
5186.959267073249066
 33
0.0
  0
3DFACE
  8
0
 62
0
  6
BYLAYER
 10
-4350.1017870111736556
 20
5186.9572960975874594
 30
0.0
 11
-5912.6033446746387199
 21
5186.9533541462642461
 31
0.0
 12
-5912.6034203601020636
 22
5216.9533830252221378
 32
0.0
 13
-4350.1018626966360898
 23
5216.9573249765453511
 33
0.0
  0
3DFACE
  8
0
 62
0
  6
BYLAYER
 10
-188.4762889085598374
 20
-2556.6431247217401506
 30
0.0
 11
-188.478357643079022
 21
-1677.7360730415207399
 31
0.0
 12
-68.4782421271978876
 22
-1677.7357905902867969
 32
0.0
 13
-68.4761733926787031
 23
-2556.6428422705062076
 33
0.0
  0
ARC
  8
0
 62
0
  6
BYLAYER
 10
-68.4761733926787031
 20
-2556.6428422705062076
 30
0.0
 40
878.9070516826541279
 50
-359.9998672311176051
 51
-269.9998672311176051
  0
LINE
  8
0
 62
0
  6
BYLAYER
 10
-68.4761733926787031
 20
-2556.6428422705062076
 30
0.0
 11
810.430878287540736
 21
-2556.6407735359871367
 31
0.0
  0
3DFACE
  8
0
 62
0
  6
BYLAYER
 10
810.4308779225149237
 20
-2556.6407792482818877
 30
0.0
 11
-128.4762315156719978
 21
-2556.6429777838302471
 31
0.0
 12
-128.4763720112104011
 22
-2496.6429200258876335
 32
0.0
 13
810.4307374269765205
 23
-2496.6407214903392742
 33
0.0
  0
3DFACE
  8
0
 62
0
  6
BYLAYER
 10
900.8798700297096502
 20
5126.9598575663621887
 30
0.0
 11
-2526.8576687746544849
 21
5126.9512099112853321
 31
0.0
 12
-2526.8579715165055859
 22
5246.9513254271168989
 32
0.0
 13
900.8795672878585492
 23
5246.9599730821937555
 33
0.0
  0
LINE
  8
0
 62
0
  6
BYLAYER
 10
900.879769115759359
 20
5166.9598960716393776
 30
0.0
 11
-2526.8577696886050035
 21
5166.951248416562521
 31
0.0
  0
LINE
  8
0
 62
0
  6
BYLAYER
 10
900.8796682018088404
 20
5206.9599345769165666
 30
0.0
 11
-2526.8578706025555221
 21
5206.95128692183971
 31
0.0
  0
LINE
  8
0
 62
0
  6
BYLAYER
 10
-812.9890002864227654
 20
5166.9555722441009493
 30
0.0
 11
-812.989101200373284
 21
5206.9556107493781383
 31
0.0
  0
3DFACE
  8
0
 62
0
  6
BYLAYER
 10
-3287.1126475004748499
 20
1025.0199253419114029
 30
0.0
 11
-4166.0196991831244304
 21
1025.0200130199639261
 31
0.0
 12
-4166.0196872121468914
 22
1145.0201285361767987
 32
0.0
 13
-3287.1126355294973109
 23
1145.0200408581242755
 33
0.0
  0
ARC
  8
0
 62
0
  6
BYLAYER
 10
-3287.1126355294973109
 20
1145.0200408581242755
 30
0.0
 40
878.9070516826541279
 50
-270.0000071100612331
 51
-180.0000071100612331
  0
LINE
  8
0
 62
0
  6
BYLAYER
 10
-3287.1126355294973109
 20
1145.0200408581242755
 30
0.0
 11
-3287.1125478514445604
 21
2023.9270925407740833
 31
0.0
  0
3DFACE
  8
0
 62
0
  6
BYLAYER
 10
-3287.1125421391507189
 20
2023.9270921757342876
 30
0.0
 11
-3287.1126472272803767
 21
1085.0199827349790667
 31
0.0
 12
-3347.1127049853866993
 22
1085.0199894505462908
 32
0.0
 13
-3347.1125998972570414
 23
2023.9270988913015117
 33
0.0
  0
DIMENSION
  2
*Model_Space
  8
0
 62
0
  6
BYLAYER
 10
-8394.769356841861736
 20
3135.9893494851712603
 30
0.0
 11
-8394.769356841861736
 21
3135.9893494851712603
 31
0.0
 70
1
 51
-270.0001065602413632
  1
3982
  3
Standard
 13
-8238.5192805479164235
 23
5126.9580125820357352
 33
0.0
 14
-8238.5192805479164235
 24
1145.0206863883067854
 34
0.0
1001
ACAD
1000
DSTYLE
1002
{
1070
271
1070
0
1070
279
1070
0
1002
}
  0
DIMENSION
  2
*Model_Space
  8
0
 62
0
  6
BYLAYER
 10
-3176.9757584197941469
 20
7237.2525505747762509
 30
0.0
 11
-3176.9757584197941469
 21
7237.2525505747762509
 31
0.0
 70
1
 51
-0.0000643615500735
  1
784
  3
Standard
 13
-2785.1005086619989015
 23
7081.0024742808309384
 33
0.0
 14
-3568.8510081775893923
 24
7081.0024742808309384
 34
0.0
1001
ACAD
1000
DSTYLE
1002
{
1070
271
1070
0
1070
279
1070
0
1002
}
  0
DIMENSION
  2
*Model_Space
  8
0
 62
0
  6
BYLAYER
 10
-4740.7270274172333302
 20
7237.2525505747762509
 30
0.0
 11
-4740.7270274172333302
 21
7237.2525505747762509
 31
0.0
 70
1
 51
-0.0000643615500735
  1
2344
  3
Standard
 13
-3568.8510081775893923
 23
7081.0024742808309384
 33
0.0
 14
-5912.6030466568772681
 24
7081.0024742808309384
 34
0.0
1001
ACAD
1000
DSTYLE
1002
{
1070
271
1070
0
1070
279
1070
0
1002
}
  0
DIMENSION
  2
*Model_Space
  8
0
 62
0
  6
BYLAYER
 10
-6172.3986604371748399
 20
7237.2525505747762509
 30
0.0
 11
-6172.3986604371748399
 21
7237.2525505747762509
 31
0.0
 70
1
 51
-0.0000643615500735
  1
520
  3
Standard
 13
-5912.6030466568772681
 23
7081.0024742808309384
 33
0.0
 14
-6432.1942742174724117
 24
7081.0024742808309384
 34
0.0
1001
ACAD
1000
DSTYLE
1002
{
1070
271
1070
0
1070
279
1070
0
1002
}
  0
DIMENSION
  2
*Model_Space
  8
0
 62
0
  6
BYLAYER
 10
3020.682021702232305
 20
2875.0027598149245023
 30
0.0
 11
3020.682021702232305
 21
2875.0027598149245023
 31
0.0
 70
1
 51
89.9999678192249633
  1
4504
  3
Standard
 13
2864.4319454082869925
 23
623.0475070478132693
 33
0.0
 14
2864.4319454082869925
 24
5126.9580125820357352
 34
0.0
1001
ACAD
1000
DSTYLE
1002
{
1070
271
1070
0
1070
279
1070
0
1002
}
  0
DIMENSION
  2
*Model_Space
  8
0
 62
0
  6
BYLAYER
 10
434.8148759157493259
 20
-5064.51615622616373
 30
0.0
 11
434.8148759157493259
 21
-5064.51615622616373
 31
0.0
 70
1
 51
-0.0
  1
1247
  3
Standard
 13
-188.4767402112902346
 23
-4908.2660799322184175
 33
0.0
 14
1058.1064920427888865
 24
-4908.2660799322184175
 34
0.0
1001
ACAD
1000
DSTYLE
1002
{
1070
271
1070
0
1070
279
1070
0
1002
}
  0
DIMENSION
  2
*Model_Space
  8
0
 62
0
  6
BYLAYER
 10
3020.682021702232305
 20
-2117.1894576554041123
 30
0.0
 11
3020.682021702232305
 21
-2117.1894576554041123
 31
0.0
 70
1
 51
89.9999678192249633
  1
879
  3
Standard
 13
2864.4319454082869925
 23
-2556.6429462438100018
 33
0.0
 14
2864.4319454082869925
 24
-1677.7359690669982228
 34
0.0
1001
ACAD
1000
DSTYLE
1002
{
1070
271
1070
0
1070
279
1070
0
1002
}
  0
DIMENSION
  2
*Model_Space
  8
0
 62
0
  6
BYLAYER
 10
3020.682021702232305
 20
-527.3442310095924768
 30
0.0
 11
3020.682021702232305
 21
-527.3442310095924768
 31
0.0
 70
1
 51
89.9999678192249633
  1
2301
  3
Standard
 13
2864.4319454082869925
 23
-1677.7359690669982228
 33
0.0
 14
2864.4319454082869925
 24
623.0475070478132693
 34
0.0
1001
ACAD
1000
DSTYLE
1002
{
1070
271
1070
0
1070
279
1070
0
1002
}
  0
DIMENSION
  2
*Model_Space
  8
0
 62
0
  6
BYLAYER
 10
-3310.3355072143813231
 20
-5064.51615622616373
 30
0.0
 11
-3310.3355072143813231
 21
-5064.51615622616373
 31
0.0
 70
1
 51
-0.0
  1
6244
  3
Standard
 13
-6432.1942742174724117
 23
-4908.2660799322184175
 33
0.0
 14
-188.4767402112902346
 24
-4908.2660799322184175
 34
0.0
1001
ACAD
1000
DSTYLE
1002
{
1070
271
1070
0
1070
279
1070
0
1002
}
  0
DIMENSION
  2
*Model_Space
  8
0
 62
0
  6
BYLAYER
 10
-812.9890879990671237
 20
7237.2525505747762509
 30
0.0
 11
-812.9890879990671237
 21
7237.2525505747762509
 31
0.0
 70
1
 51
-0.0000643615500735
  1
3428
  3
Standard
 13
900.8797186614901875
 23
7081.0024742808309384
 33
0.0
 14
-2526.857894659624435
 24
7081.0024742808309384
 34
0.0
1001
ACAD
1000
DSTYLE
1002
{
1070
271
1070
0
1070
279
1070
0
1002
}
  0
DIMENSION
  2
*Model_Space
  8
0
 62
0
  6
BYLAYER
 10
-8394.769356841861736
 20
-964.600393295440881
 30
0.0
 11
-8394.769356841861736
 21
-964.600393295440881
 31
0.0
 70
1
 51
-270.0001065602413632
  1
3979
  3
Standard
 13
-8238.5192805479164235
 23
1025.0205336191720562
 33
0.0
 14
-8238.5192805479164235
 24
-2954.2213202100538183
 34
0.0
1001
ACAD
1000
DSTYLE
1002
{
1070
271
1070
0
1070
279
1070
0
1002
}
  0
ENDSEC
  0
EOF
